<svg xmlns="http://www.w3.org/2000/svg" width="512" height="512" viewBox="0 0 512 512" role="img" aria-labelledby="title desc">
  <title id="title">CVAgent Icon</title>
  <desc id="desc">Rounded square gradient badge with a document and spark accent.</desc>
  <defs>
    <linearGradient id="bg" x1="0%" y1="0%" x2="100%" y2="100%">
      <stop offset="0%" stop-color="#2563eb"/>
      <stop offset="100%" stop-color="#06b6d4"/>
    </linearGradient>
    <linearGradient id="paper" x1="0%" y1="0%" x2="0%" y2="100%">
      <stop offset="0%" stop-color="#ffffff" stop-opacity="0.96"/>
      <stop offset="100%" stop-color="#e2f1ff" stop-opacity="0.96"/>
    </linearGradient>
    <filter id="shadow" x="-20%" y="-20%" width="140%" height="140%">
      <feDropShadow dx="0" dy="16" stdDeviation="18" flood-color="#0c2244" flood-opacity="0.32"/>
    </filter>
  </defs>
  <rect x="28" y="28" width="456" height="456" rx="116" fill="url(#bg)"/>
  <g filter="url(#shadow)">
    <path d="M169 118h144l66 67v209c0 23-19 42-42 42H169c-23 0-42-19-42-42V160c0-23 19-42 42-42z" fill="url(#paper)"/>
    <path d="M313 118v67h66" fill="none" stroke="#a9cfff" stroke-width="18" stroke-linecap="round" stroke-linejoin="round"/>
    <path d="M183 226h147M183 274h147M183 322h106" fill="none" stroke="#3a72d2" stroke-width="18" stroke-linecap="round" stroke-linejoin="round"/>
    <path d="M349 276l16 29 31 8-23 22 4 31-28-15-28 15 4-31-22-22 30-8z" fill="#dff3ff"/>
  </g>
</svg>
