<svg viewBox="0 0 192 192" xmlns="http://www.w3.org/2000/svg">
  <defs>
    <linearGradient id="etpattern-gradient" x1="0%" y1="0%" x2="100%" y2="100%">
      <stop offset="0%" style="stop-color:#f093fb;stop-opacity:1" />
      <stop offset="100%" style="stop-color:#f5576c;stop-opacity:1" />
    </linearGradient>
  </defs>

  <!-- Background -->
  <rect width="192" height="192" fill="url(#etpattern-gradient)" rx="48"/>

  <!-- Brain/Pattern icon -->
  <g transform="translate(48, 40)">
    <!-- Brain outline -->
    <path d="M 48 8 Q 72 8 80 24 Q 88 40 80 56 Q 96 56 96 72 Q 96 88 80 88 Q 88 104 72 104 Q 48 104 48 88 Q 32 88 32 72 Q 32 56 48 56 Q 40 40 48 24 Z"
          fill="none" stroke="#ffffff" stroke-width="4" stroke-linejoin="round" stroke-linecap="round"/>

    <!-- Inner pattern nodes -->
    <circle cx="48" cy="32" r="4" fill="#ffffff"/>
    <circle cx="68" cy="24" r="4" fill="#ffffff"/>
    <circle cx="80" cy="40" r="4" fill="#ffffff"/>
    <circle cx="72" cy="60" r="4" fill="#ffffff"/>
    <circle cx="48" cy="64" r="4" fill="#ffffff"/>
    <circle cx="32" cy="50" r="4" fill="#ffffff"/>
    <circle cx="40" cy="80" r="4" fill="#ffffff"/>
    <circle cx="64" cy="88" r="4" fill="#ffffff"/>
  </g>
</svg>
