<svg xmlns="http://www.w3.org/2000/svg" width="512" height="512" viewBox="0 0 512 512" role="img" aria-labelledby="title desc">
  <title id="title">ETPattern Icon</title>
  <desc id="desc">Rounded square gradient badge with pattern tracks and learning nodes.</desc>
  <defs>
    <linearGradient id="bg" x1="0%" y1="0%" x2="100%" y2="100%">
      <stop offset="0%" stop-color="#0f9f7a"/>
      <stop offset="100%" stop-color="#68d391"/>
    </linearGradient>
    <linearGradient id="stroke" x1="0%" y1="0%" x2="100%" y2="0%">
      <stop offset="0%" stop-color="#ebfffb"/>
      <stop offset="100%" stop-color="#c8ffe7"/>
    </linearGradient>
    <filter id="shadow" x="-20%" y="-20%" width="140%" height="140%">
      <feDropShadow dx="0" dy="16" stdDeviation="18" flood-color="#093628" flood-opacity="0.3"/>
    </filter>
  </defs>
  <rect x="28" y="28" width="456" height="456" rx="116" fill="url(#bg)"/>
  <g filter="url(#shadow)">
    <path d="M118 165c53 0 53 74 106 74s53-74 106-74 53 74 106 74" fill="none" stroke="url(#stroke)" stroke-width="22" stroke-linecap="round"/>
    <path d="M118 256c53 0 53 74 106 74s53-74 106-74 53 74 106 74" fill="none" stroke="url(#stroke)" stroke-width="22" stroke-linecap="round"/>
    <path d="M118 347c53 0 53 74 106 74s53-74 106-74 53 74 106 74" fill="none" stroke="url(#stroke)" stroke-width="22" stroke-linecap="round"/>
    <circle cx="224" cy="239" r="18" fill="#f4fff9"/>
    <circle cx="330" cy="256" r="18" fill="#f4fff9"/>
    <circle cx="224" cy="421" r="18" fill="#f4fff9"/>
  </g>
</svg>
